<?xml version="1.0" encoding="UTF-8" standalone="no"?>
<!-- Created with Inkscape (http://www.inkscape.org/) -->

<svg
   xmlns:dc="http://purl.org/dc/elements/1.1/"
   xmlns:cc="http://creativecommons.org/ns#"
   xmlns:rdf="http://www.w3.org/1999/02/22-rdf-syntax-ns#"
   xmlns:svg="http://www.w3.org/2000/svg"
   xmlns="http://www.w3.org/2000/svg"
   xmlns:xlink="http://www.w3.org/1999/xlink"
   xmlns:sodipodi="http://sodipodi.sourceforge.net/DTD/sodipodi-0.dtd"
   xmlns:inkscape="http://www.inkscape.org/namespaces/inkscape"
   width="2104.7244"
   height="1488.189"
   id="svg2"
   version="1.1"
   inkscape:version="0.48.3.1 r9886"
   sodipodi:docname="start.svg">
  <defs
     id="defs4" />
  <sodipodi:namedview
     id="base"
     pagecolor="#ffffff"
     bordercolor="#666666"
     borderopacity="1.0"
     inkscape:pageopacity="0.0"
     inkscape:pageshadow="2"
     inkscape:zoom="0.58569364"
     inkscape:cx="330.44489"
     inkscape:cy="1176.3168"
     inkscape:document-units="px"
     inkscape:current-layer="layer1"
     showgrid="false"
     inkscape:window-width="1364"
     inkscape:window-height="747"
     inkscape:window-x="0"
     inkscape:window-y="19"
     inkscape:window-maximized="0" />
  <metadata
     id="metadata7">
    <rdf:RDF>
      <cc:Work
         rdf:about="">
        <dc:format>image/svg+xml</dc:format>
        <dc:type
           rdf:resource="http://purl.org/dc/dcmitype/StillImage" />
      </cc:Work>
    </rdf:RDF>
  </metadata>
  <g
     inkscape:label="Layer 1"
     inkscape:groupmode="layer"
     id="layer1"
     style="display:inline"
     transform="translate(0,435.82671)">
    <use
       x="0"
       y="0"
       xlink:href="#g3011"
       id="use3049"
       transform="translate(388.45776,149.909)"
       width="744.09448"
       height="1052.3622" />
    <use
       height="1052.3622"
       width="744.09448"
       transform="translate(388.45776,103.99361)"
       id="use3051"
       xlink:href="#g3011"
       y="0"
       x="0" />
    <use
       x="0"
       y="0"
       xlink:href="#g3011"
       id="use3053"
       transform="translate(434.37315,103.99361)"
       width="744.09448"
       height="1052.3622" />
    <use
       height="1052.3622"
       width="744.09448"
       transform="translate(480.28854,103.99361)"
       id="use3055"
       xlink:href="#g3011"
       y="0"
       x="0" />
    <use
       x="0"
       y="0"
       xlink:href="#g3011"
       id="use3057"
       transform="translate(480.28854,149.909)"
       width="744.09448"
       height="1052.3622" />
    <use
       height="1052.3622"
       width="744.09448"
       transform="translate(480.28854,195.82439)"
       id="use3059"
       xlink:href="#g3011"
       y="0"
       x="0" />
    <use
       x="0"
       y="0"
       xlink:href="#g3011"
       id="use3061"
       transform="translate(434.37315,195.82439)"
       width="744.09448"
       height="1052.3622" />
    <use
       height="1052.3622"
       width="744.09448"
       transform="translate(388.45776,195.82439)"
       id="use3063"
       xlink:href="#g3011"
       y="0"
       x="0" />
    <use
       height="1052.3622"
       width="744.09448"
       transform="translate(342.54238,149.909)"
       id="use3065"
       xlink:href="#g3011"
       y="0"
       x="0" />
    <use
       height="1052.3622"
       width="744.09448"
       transform="translate(434.37315,58.078224)"
       id="use3079"
       xlink:href="#g3011"
       y="0"
       x="0" />
    <use
       height="1052.3622"
       width="744.09448"
       transform="translate(526.20393,149.909)"
       id="use3091"
       xlink:href="#g3011"
       y="0"
       x="0" />
    <use
       height="1052.3622"
       width="744.09448"
       transform="translate(434.37315,241.73978)"
       id="use3103"
       xlink:href="#g3011"
       y="0"
       x="0" />
    <use
       x="0"
       y="0"
       xlink:href="#rect3029"
       id="use3113"
       transform="translate(338.42664,-40.305102)"
       width="744.09448"
       height="1052.3622" />
    <use
       height="1052.3622"
       width="744.09448"
       transform="translate(338.42664,5.610286)"
       id="use3115"
       xlink:href="#rect3029"
       y="0"
       x="0" />
    <use
       x="0"
       y="0"
       xlink:href="#rect3029"
       id="use3117"
       transform="translate(292.51126,5.610292)"
       width="744.09448"
       height="1052.3622" />
    <use
       height="1052.3622"
       width="744.09448"
       transform="translate(292.51126,-40.305102)"
       id="use3119"
       xlink:href="#rect3029"
       y="0"
       x="0" />
    <use
       height="1052.3622"
       width="744.09448"
       transform="translate(568.00359,-40.305102)"
       id="use3121"
       xlink:href="#rect3029"
       y="0"
       x="0" />
    <use
       x="0"
       y="0"
       xlink:href="#rect3029"
       id="use3123"
       transform="translate(568.00359,5.610286)"
       width="744.09448"
       height="1052.3622" />
    <use
       height="1052.3622"
       width="744.09448"
       transform="translate(522.0882,5.610286)"
       id="use3125"
       xlink:href="#rect3029"
       y="0"
       x="0" />
    <use
       x="0"
       y="0"
       xlink:href="#rect3029"
       id="use3127"
       transform="translate(522.0882,-40.305102)"
       width="744.09448"
       height="1052.3622" />
    <use
       x="0"
       y="0"
       xlink:href="#rect3029"
       id="use3129"
       transform="translate(568.00359,189.27184)"
       width="744.09448"
       height="1052.3622" />
    <use
       height="1052.3622"
       width="744.09448"
       transform="translate(568.00359,235.18723)"
       id="use3131"
       xlink:href="#rect3029"
       y="0"
       x="0" />
    <use
       x="0"
       y="0"
       xlink:href="#rect3029"
       id="use3133"
       transform="translate(522.0882,235.18723)"
       width="744.09448"
       height="1052.3622" />
    <use
       height="1052.3622"
       width="744.09448"
       transform="translate(522.0882,189.27184)"
       id="use3135"
       xlink:href="#rect3029"
       y="0"
       x="0" />
    <use
       height="1052.3622"
       width="744.09448"
       transform="translate(338.42664,189.27184)"
       id="use3137"
       xlink:href="#rect3029"
       y="0"
       x="0" />
    <use
       x="0"
       y="0"
       xlink:href="#rect3029"
       id="use3139"
       transform="translate(338.42664,235.18723)"
       width="744.09448"
       height="1052.3622" />
    <use
       height="1052.3622"
       width="744.09448"
       transform="translate(292.51126,235.18723)"
       id="use3141"
       xlink:href="#rect3029"
       y="0"
       x="0" />
    <use
       x="0"
       y="0"
       xlink:href="#rect3029"
       id="use3143"
       transform="translate(292.51126,189.27184)"
       width="744.09448"
       height="1052.3622" />
    <use
       style="display:inline"
       x="0"
       y="0"
       xlink:href="#g3201"
       id="use3225"
       transform="translate(397.23337,196.88883)"
       width="744.09448"
       height="1052.3622" />
    <use
       height="1052.3622"
       width="744.09448"
       transform="matrix(0,1,-1,0,-276.03755,135.38813)"
       id="use3228"
       xlink:href="#g3201"
       y="0"
       x="0"
       style="display:inline" />
    <use
       style="display:inline"
       x="0"
       y="0"
       xlink:href="#g3201"
       id="use3230"
       transform="matrix(0,-1,1,0,642.39562,-476.38209)"
       width="744.09448"
       height="1052.3622" />
    <use
       height="1052.3622"
       width="744.09448"
       transform="matrix(0,-1,1,0,734.2264,-568.21286)"
       id="use3232"
       xlink:href="#g3201"
       y="0"
       x="0"
       style="display:inline" />
    <use
       height="1052.3622"
       width="744.09448"
       transform="translate(580.89493,196.88884)"
       id="use3234"
       xlink:href="#g3201"
       y="0"
       x="0"
       style="display:inline" />
    <use
       style="display:inline"
       x="0"
       y="0"
       xlink:href="#g3201"
       id="use3236"
       transform="translate(489.06415,288.71961)"
       width="744.09448"
       height="1052.3622" />
    <use
       style="display:inline"
       x="0"
       y="0"
       xlink:href="#g3201"
       id="use3238"
       transform="matrix(0,1,-1,0,-367.86834,43.557354)"
       width="744.09448"
       height="1052.3622" />
    <use
       height="1052.3622"
       width="744.09448"
       transform="matrix(0,1,-1,0,-276.03755,-48.27342)"
       id="use3240"
       xlink:href="#g3201"
       y="0"
       x="0"
       style="display:inline" />
    <use
       height="1052.3622"
       width="744.09448"
       transform="matrix(0,-1,1,0,642.39562,-660.04364)"
       id="use3242"
       xlink:href="#g3201"
       y="0"
       x="0"
       style="display:inline" />
    <use
       height="1052.3622"
       width="744.09448"
       transform="matrix(-1,0,0,-1,-30.87529,-721.54435)"
       id="use3244"
       xlink:href="#g3201"
       y="0"
       x="0"
       style="display:inline" />
    <use
       style="display:inline"
       x="0"
       y="0"
       xlink:href="#g3201"
       id="use3246"
       transform="matrix(-1,0,0,-1,-122.70608,-813.37512)"
       width="744.09448"
       height="1052.3622" />
    <use
       height="1052.3622"
       width="744.09448"
       transform="matrix(-1,0,0,-1,-214.53685,-721.54435)"
       id="use3269"
       xlink:href="#g3201"
       y="0"
       x="0"
       style="display:inline" />
    <use
       style="display:inline"
       x="0"
       y="0"
       xlink:href="#g3214"
       id="use3271"
       transform="translate(352.87532,137.99967)"
       width="744.09448"
       height="1052.3622" />
    <use
       height="1052.3622"
       width="744.09448"
       transform="translate(444.7061,229.83045)"
       id="use3274"
       xlink:href="#g3214"
       y="0"
       x="0"
       style="display:inline" />
    <use
       style="display:inline"
       x="0"
       y="0"
       xlink:href="#g3214"
       id="use3276"
       transform="matrix(0,-1,1,0,583.50646,-432.02404)"
       width="744.09448"
       height="1052.3622"
       inkscape:transform-center-x="4.8016873"
       inkscape:transform-center-y="-32.239902" />
    <use
       inkscape:transform-center-y="-32.239907"
       inkscape:transform-center-x="4.8016882"
       height="1052.3622"
       width="744.09448"
       transform="matrix(0,-1,1,0,675.33724,-523.85482)"
       id="use3278"
       xlink:href="#g3214"
       y="0"
       x="0"
       style="display:inline" />
    <use
       style="display:inline"
       x="0"
       y="0"
       xlink:href="#g3214"
       id="use3280"
       transform="matrix(-1,0,0,-1,13.48275,-662.65518)"
       width="744.09448"
       height="1052.3622" />
    <use
       height="1052.3622"
       width="744.09448"
       transform="matrix(-1,0,0,-1,-78.34804,-754.48596)"
       id="use3282"
       xlink:href="#g3214"
       y="0"
       x="0"
       style="display:inline" />
    <use
       style="display:inline"
       x="0"
       y="0"
       xlink:href="#g3214"
       id="use3284"
       transform="matrix(0,1,-1,0,-217.14839,-92.631466)"
       width="744.09448"
       height="1052.3622" />
    <use
       height="1052.3622"
       width="744.09448"
       transform="matrix(0,1,-1,0,-308.97917,-0.8006908)"
       id="use3286"
       xlink:href="#g3214"
       y="0"
       x="0"
       style="display:inline" />
    <use
       x="0"
       y="0"
       xlink:href="#g3011"
       id="use14848"
       transform="translate(754.69018,103.99361)"
       width="744.09448"
       height="1052.3622" />
    <use
       height="1052.3622"
       width="744.09448"
       transform="translate(800.60557,103.99361)"
       id="use14850"
       xlink:href="#g3011"
       y="0"
       x="0" />
    <use
       x="0"
       y="0"
       xlink:href="#g3011"
       id="use14852"
       transform="translate(846.52096,103.99361)"
       width="744.09448"
       height="1052.3622" />
    <use
       height="1052.3622"
       width="744.09448"
       transform="translate(846.52096,149.909)"
       id="use14854"
       xlink:href="#g3011"
       y="0"
       x="0" />
    <use
       x="0"
       y="0"
       xlink:href="#g3011"
       id="use14856"
       transform="translate(846.52096,195.82439)"
       width="744.09448"
       height="1052.3622" />
    <use
       height="1052.3622"
       width="744.09448"
       transform="translate(800.60557,195.82439)"
       id="use14858"
       xlink:href="#g3011"
       y="0"
       x="0" />
    <use
       x="0"
       y="0"
       xlink:href="#g3011"
       id="use14860"
       transform="translate(754.69018,195.82439)"
       width="744.09448"
       height="1052.3622" />
    <use
       x="0"
       y="0"
       xlink:href="#g3011"
       id="use14862"
       transform="translate(800.60556,149.90899)"
       width="744.09448"
       height="1052.3622" />
    <use
       x="0"
       y="0"
       xlink:href="#g3011"
       id="use14864"
       transform="translate(800.60557,58.078224)"
       width="744.09448"
       height="1052.3622" />
    <use
       x="0"
       y="0"
       xlink:href="#g3011"
       id="use14866"
       transform="translate(892.43635,149.909)"
       width="744.09448"
       height="1052.3622" />
    <use
       x="0"
       y="0"
       xlink:href="#g3011"
       id="use14868"
       transform="translate(800.60557,241.73978)"
       width="744.09448"
       height="1052.3622" />
    <use
       height="1052.3622"
       width="744.09448"
       transform="translate(704.65906,-40.305102)"
       id="use14870"
       xlink:href="#rect3029"
       y="0"
       x="0" />
    <use
       x="0"
       y="0"
       xlink:href="#rect3029"
       id="use14872"
       transform="translate(704.65906,5.610286)"
       width="744.09448"
       height="1052.3622" />
    <use
       height="1052.3622"
       width="744.09448"
       transform="translate(658.74368,5.610292)"
       id="use14874"
       xlink:href="#rect3029"
       y="0"
       x="0" />
    <use
       x="0"
       y="0"
       xlink:href="#rect3029"
       id="use14876"
       transform="translate(658.74368,-40.305102)"
       width="744.09448"
       height="1052.3622" />
    <use
       x="0"
       y="0"
       xlink:href="#rect3029"
       id="use14878"
       transform="translate(934.23601,-40.305102)"
       width="744.09448"
       height="1052.3622" />
    <use
       height="1052.3622"
       width="744.09448"
       transform="translate(934.23601,5.610286)"
       id="use14880"
       xlink:href="#rect3029"
       y="0"
       x="0" />
    <use
       x="0"
       y="0"
       xlink:href="#rect3029"
       id="use14882"
       transform="translate(888.32062,5.610286)"
       width="744.09448"
       height="1052.3622" />
    <use
       height="1052.3622"
       width="744.09448"
       transform="translate(888.32062,-40.305102)"
       id="use14884"
       xlink:href="#rect3029"
       y="0"
       x="0" />
    <use
       height="1052.3622"
       width="744.09448"
       transform="translate(934.23601,189.27184)"
       id="use14886"
       xlink:href="#rect3029"
       y="0"
       x="0" />
    <use
       x="0"
       y="0"
       xlink:href="#rect3029"
       id="use14888"
       transform="translate(934.23601,235.18723)"
       width="744.09448"
       height="1052.3622" />
    <use
       height="1052.3622"
       width="744.09448"
       transform="translate(888.32062,235.18723)"
       id="use14890"
       xlink:href="#rect3029"
       y="0"
       x="0" />
    <use
       x="0"
       y="0"
       xlink:href="#rect3029"
       id="use14892"
       transform="translate(888.32062,189.27184)"
       width="744.09448"
       height="1052.3622" />
    <use
       x="0"
       y="0"
       xlink:href="#rect3029"
       id="use14894"
       transform="translate(704.65906,189.27184)"
       width="744.09448"
       height="1052.3622" />
    <use
       height="1052.3622"
       width="744.09448"
       transform="translate(704.65906,235.18723)"
       id="use14896"
       xlink:href="#rect3029"
       y="0"
       x="0" />
    <use
       x="0"
       y="0"
       xlink:href="#rect3029"
       id="use14898"
       transform="translate(658.74368,235.18723)"
       width="744.09448"
       height="1052.3622" />
    <use
       height="1052.3622"
       width="744.09448"
       transform="translate(658.74368,189.27184)"
       id="use14900"
       xlink:href="#rect3029"
       y="0"
       x="0" />
    <use
       height="1052.3622"
       width="744.09448"
       transform="translate(763.46579,196.88883)"
       id="use14902"
       xlink:href="#g3201"
       y="0"
       x="0"
       style="display:inline" />
    <use
       style="display:inline"
       x="0"
       y="0"
       xlink:href="#g3201"
       id="use14904"
       transform="matrix(0,1,-1,0,90.19487,135.38813)"
       width="744.09448"
       height="1052.3622" />
    <use
       height="1052.3622"
       width="744.09448"
       transform="matrix(0,-1,1,0,1008.628,-476.38209)"
       id="use14906"
       xlink:href="#g3201"
       y="0"
       x="0"
       style="display:inline" />
    <use
       style="display:inline"
       x="0"
       y="0"
       xlink:href="#g3201"
       id="use14908"
       transform="matrix(0,-1,1,0,1100.4589,-568.21286)"
       width="744.09448"
       height="1052.3622" />
    <use
       style="display:inline"
       x="0"
       y="0"
       xlink:href="#g3201"
       id="use14910"
       transform="translate(947.12735,196.88884)"
       width="744.09448"
       height="1052.3622" />
    <use
       height="1052.3622"
       width="744.09448"
       transform="translate(855.29657,288.71961)"
       id="use14912"
       xlink:href="#g3201"
       y="0"
       x="0"
       style="display:inline" />
    <use
       height="1052.3622"
       width="744.09448"
       transform="matrix(0,1,-1,0,-1.6359196,43.557354)"
       id="use14914"
       xlink:href="#g3201"
       y="0"
       x="0"
       style="display:inline" />
    <use
       style="display:inline"
       x="0"
       y="0"
       xlink:href="#g3201"
       id="use14916"
       transform="matrix(0,1,-1,0,90.19487,-48.27342)"
       width="744.09448"
       height="1052.3622" />
    <use
       style="display:inline"
       x="0"
       y="0"
       xlink:href="#g3201"
       id="use14918"
       transform="matrix(0,-1,1,0,1008.628,-660.04364)"
       width="744.09448"
       height="1052.3622" />
    <use
       style="display:inline"
       x="0"
       y="0"
       xlink:href="#g3201"
       id="use14920"
       transform="matrix(-1,0,0,-1,335.35713,-721.54435)"
       width="744.09448"
       height="1052.3622" />
    <use
       height="1052.3622"
       width="744.09448"
       transform="matrix(-1,0,0,-1,243.52634,-813.37512)"
       id="use14922"
       xlink:href="#g3201"
       y="0"
       x="0"
       style="display:inline" />
    <use
       style="display:inline"
       x="0"
       y="0"
       xlink:href="#g3201"
       id="use14924"
       transform="matrix(-1,0,0,-1,151.69557,-721.54435)"
       width="744.09448"
       height="1052.3622" />
    <use
       height="1052.3622"
       width="744.09448"
       transform="translate(719.10774,137.99967)"
       id="use14926"
       xlink:href="#g3214"
       y="0"
       x="0"
       style="display:inline" />
    <use
       style="display:inline"
       x="0"
       y="0"
       xlink:href="#g3214"
       id="use14928"
       transform="translate(810.93852,229.83045)"
       width="744.09448"
       height="1052.3622" />
    <use
       inkscape:transform-center-y="-32.239902"
       inkscape:transform-center-x="4.8016873"
       height="1052.3622"
       width="744.09448"
       transform="matrix(0,-1,1,0,949.73888,-432.02404)"
       id="use14930"
       xlink:href="#g3214"
       y="0"
       x="0"
       style="display:inline" />
    <use
       style="display:inline"
       x="0"
       y="0"
       xlink:href="#g3214"
       id="use14932"
       transform="matrix(0,-1,1,0,1041.5697,-523.85482)"
       width="744.09448"
       height="1052.3622"
       inkscape:transform-center-x="4.8016882"
       inkscape:transform-center-y="-32.239907" />
    <use
       height="1052.3622"
       width="744.09448"
       transform="matrix(-1,0,0,-1,379.71517,-662.65518)"
       id="use14934"
       xlink:href="#g3214"
       y="0"
       x="0"
       style="display:inline" />
    <use
       style="display:inline"
       x="0"
       y="0"
       xlink:href="#g3214"
       id="use14936"
       transform="matrix(-1,0,0,-1,287.88438,-754.48596)"
       width="744.09448"
       height="1052.3622" />
    <use
       height="1052.3622"
       width="744.09448"
       transform="matrix(0,1,-1,0,149.08403,-92.631466)"
       id="use14938"
       xlink:href="#g3214"
       y="0"
       x="0"
       style="display:inline" />
    <use
       style="display:inline"
       x="0"
       y="0"
       xlink:href="#g3214"
       id="use14940"
       transform="matrix(0,1,-1,0,57.25325,-0.8006908)"
       width="744.09448"
       height="1052.3622" />
    <use
       style="display:inline"
       x="0"
       y="0"
       xlink:href="#g13253"
       id="use14956"
       transform="translate(372.77261,149.90901)"
       width="2104.7244"
       height="1488.189" />
    <use
       height="1488.189"
       width="2104.7244"
       transform="translate(647.17424,149.909)"
       id="use14959"
       xlink:href="#g13253"
       y="0"
       x="0"
       style="display:inline" />
    <use
       style="display:inline"
       x="0"
       y="0"
       xlink:href="#g13253"
       id="use14961"
       transform="translate(693.08963,149.909)"
       width="2104.7244"
       height="1488.189" />
  </g>
  <g
     inkscape:groupmode="layer"
     id="layer2"
     inkscape:label="masters"
     style="display:inline"
     transform="translate(0,435.82671)">
    <g
       style="display:inline"
       id="g3011"
       transform="matrix(0.56817396,0,0,0.56817396,-292.51797,-454.58533)">
      <rect
         y="34.128418"
         x="32.324883"
         height="80.812202"
         width="80.812202"
         id="rect2985"
         style="fill:#ddff55;fill-opacity:1;stroke:none" />
      <path
         transform="translate(-4.8379173,-0.21808243)"
         d="m 101.41304,74.752602 c 0,13.168752 -10.675387,23.844135 -23.844139,23.844135 -13.168752,0 -23.844135,-10.675383 -23.844135,-23.844135 0,-13.168753 10.675383,-23.844136 23.844135,-23.844136 13.168752,0 23.844139,10.675383 23.844139,23.844136 z"
         sodipodi:ry="23.844135"
         sodipodi:rx="23.844135"
         sodipodi:cy="74.752602"
         sodipodi:cx="77.568901"
         id="path2989"
         style="fill:#ffffff;fill-opacity:1;stroke:#000000;stroke-width:0.84399998;stroke-miterlimit:4;stroke-opacity:1;stroke-dasharray:none"
         sodipodi:type="arc" />
      <path
         inkscape:connector-curvature="0"
         id="path2991"
         d="m 35.439131,74.534519 12.525717,0"
         style="fill:none;stroke:#000000;stroke-width:1px;stroke-linecap:butt;stroke-linejoin:miter;stroke-opacity:1" />
      <path
         style="fill:none;stroke:#000000;stroke-width:1px;stroke-linecap:butt;stroke-linejoin:miter;stroke-opacity:1"
         d="m 97.497119,74.534519 12.525711,0"
         id="path2993"
         inkscape:connector-curvature="0" />
      <path
         inkscape:connector-curvature="0"
         id="path2995"
         d="m 72.815162,37.242668 0,12.525716"
         style="fill:none;stroke:#000000;stroke-width:1px;stroke-linecap:butt;stroke-linejoin:miter;stroke-opacity:1" />
      <path
         style="fill:none;stroke:#000000;stroke-width:1px;stroke-linecap:butt;stroke-linejoin:miter;stroke-opacity:1"
         d="m 72.815162,99.300654 0,12.525716"
         id="path2997"
         inkscape:connector-curvature="0" />
    </g>
    <g
       id="g13253">
      <rect
         style="fill:#ddff55;fill-opacity:1;stroke:none"
         id="rect2999"
         width="45.91539"
         height="45.91539"
         x="-212.55127"
         y="-435.19446" />
      <path
         sodipodi:type="arc"
         style="fill:#000000;fill-opacity:1;stroke:#000000;stroke-width:0.84399998;stroke-miterlimit:4;stroke-opacity:1;stroke-dasharray:none"
         id="path3001"
         sodipodi:cx="77.568901"
         sodipodi:cy="74.752602"
         sodipodi:rx="23.844135"
         sodipodi:ry="23.844135"
         d="m 101.41304,74.752602 c 0,13.168752 -10.675387,23.844135 -23.844139,23.844135 -13.168752,0 -23.844135,-10.675383 -23.844135,-23.844135 0,-13.168753 10.675383,-23.844136 23.844135,-23.844136 13.168752,0 23.844139,10.675383 23.844139,23.844136 z"
         transform="matrix(0.56817396,0,0,0.56817396,-233.6662,-454.70924)" />
      <path
         style="fill:none;stroke:#000000;stroke-width:0.56817394px;stroke-linecap:butt;stroke-linejoin:miter;stroke-opacity:1"
         d="m -210.78183,-412.23676 7.11678,0"
         id="path3003"
         inkscape:connector-curvature="0" />
      <path
         inkscape:connector-curvature="0"
         id="path3005"
         d="m -175.52211,-412.23676 7.11679,0"
         style="fill:none;stroke:#000000;stroke-width:0.56817394px;stroke-linecap:butt;stroke-linejoin:miter;stroke-opacity:1" />
      <path
         style="fill:none;stroke:#000000;stroke-width:0.56817394px;stroke-linecap:butt;stroke-linejoin:miter;stroke-opacity:1"
         d="m -189.54575,-433.42502 0,7.11679"
         id="path3007"
         inkscape:connector-curvature="0" />
      <path
         inkscape:connector-curvature="0"
         id="path3009"
         d="m -189.54575,-398.16528 0,7.11678"
         style="fill:none;stroke:#000000;stroke-width:0.56817394px;stroke-linecap:butt;stroke-linejoin:miter;stroke-opacity:1" />
    </g>
    <rect
       y="-382.72653"
       x="-270.03607"
       height="45.91539"
       width="45.91539"
       id="rect3029"
       style="fill:#000000;fill-opacity:1;stroke:none;display:inline" />
    <g
       style="display:inline"
       id="g3201"
       transform="matrix(0.56817396,0,0,0.56817396,-395.86817,-715.14535)">
      <rect
         style="fill:#ddff55;fill-opacity:1;stroke:none"
         id="rect3183"
         width="80.812202"
         height="80.812202"
         x="117.96627"
         y="490.84695" />
      <path
         sodipodi:type="arc"
         style="fill:#ffffff;fill-opacity:1;stroke:#000000;stroke-width:0.84399998;stroke-miterlimit:4;stroke-opacity:1;stroke-dasharray:none"
         id="path3185"
         sodipodi:cx="77.568901"
         sodipodi:cy="74.752602"
         sodipodi:rx="23.844135"
         sodipodi:ry="23.844135"
         d="m 101.41304,74.752602 c 0,13.168752 -10.675387,23.844135 -23.844139,23.844135 -13.168752,0 -23.844135,-10.675383 -23.844135,-23.844135 0,-13.168753 10.675383,-23.844136 23.844135,-23.844136 13.168752,0 23.844139,10.675383 23.844139,23.844136 z"
         transform="translate(80.803473,456.50047)" />
      <path
         style="fill:none;stroke:#000000;stroke-width:1px;stroke-linecap:butt;stroke-linejoin:miter;stroke-opacity:1"
         d="m 121.08052,531.25307 12.52572,0"
         id="path3187"
         inkscape:connector-curvature="0" />
      <path
         inkscape:connector-curvature="0"
         id="path3189"
         d="m 183.13851,531.25307 12.52571,0"
         style="fill:none;stroke:#000000;stroke-width:1px;stroke-linecap:butt;stroke-linejoin:miter;stroke-opacity:1" />
      <path
         style="fill:none;stroke:#000000;stroke-width:1px;stroke-linecap:butt;stroke-linejoin:miter;stroke-opacity:1"
         d="m 158.45655,493.96122 0,12.52571"
         id="path3191"
         inkscape:connector-curvature="0" />
    </g>
    <g
       style="display:inline"
       id="g3214"
       transform="matrix(0.56817396,0,0,0.56817396,-351.51012,-656.25619)">
      <rect
         style="fill:#ddff55;fill-opacity:1;stroke:none"
         id="rect3163"
         width="80.812202"
         height="80.812202"
         x="37.154072"
         y="490.84695" />
      <path
         sodipodi:type="arc"
         style="fill:#ffffff;fill-opacity:1;stroke:#000000;stroke-width:0.84399998;stroke-miterlimit:4;stroke-opacity:1;stroke-dasharray:none"
         id="path3165"
         sodipodi:cx="77.568901"
         sodipodi:cy="74.752602"
         sodipodi:rx="23.844135"
         sodipodi:ry="23.844135"
         d="m 101.41304,74.752602 c 0,13.168752 -10.675387,23.844135 -23.844139,23.844135 -13.168752,0 -23.844135,-10.675383 -23.844135,-23.844135 0,-13.168753 10.675383,-23.844136 23.844135,-23.844136 13.168752,0 23.844139,10.675383 23.844139,23.844136 z"
         transform="translate(-0.0087273,456.50047)" />
      <path
         inkscape:connector-curvature="0"
         id="path3169"
         d="m 102.32631,531.25307 12.52571,0"
         style="fill:none;stroke:#000000;stroke-width:1px;stroke-linecap:butt;stroke-linejoin:miter;stroke-opacity:1" />
      <path
         style="fill:none;stroke:#000000;stroke-width:1px;stroke-linecap:butt;stroke-linejoin:miter;stroke-opacity:1"
         d="m 77.644352,493.96122 0,12.52571"
         id="path3171"
         inkscape:connector-curvature="0" />
    </g>
    <g
       id="g13271">
      <rect
         y="-378.85101"
         x="-212.55127"
         height="45.91539"
         width="45.91539"
         id="rect13173"
         style="fill:#ddff55;fill-opacity:1;stroke:none" />
      <path
         transform="matrix(0.56817396,0,0,0.56817396,-233.6662,-398.36579)"
         d="m 101.41304,74.752602 a 23.844135,23.844135 0 1 1 -47.688274,0 23.844135,23.844135 0 1 1 47.688274,0 z"
         sodipodi:ry="23.844135"
         sodipodi:rx="23.844135"
         sodipodi:cy="74.752602"
         sodipodi:cx="77.568901"
         id="path13175"
         style="fill:#000000;fill-opacity:1;stroke:#000000;stroke-width:0.84399998;stroke-miterlimit:4;stroke-opacity:1;stroke-dasharray:none"
         sodipodi:type="arc" />
      <path
         inkscape:connector-curvature="0"
         id="path13177"
         d="m -210.78183,-355.89331 7.11678,0"
         style="fill:none;stroke:#000000;stroke-width:0.56817394px;stroke-linecap:butt;stroke-linejoin:miter;stroke-opacity:1" />
      <path
         style="fill:none;stroke:#000000;stroke-width:0.56817394px;stroke-linecap:butt;stroke-linejoin:miter;stroke-opacity:1"
         d="m -175.52211,-355.89331 7.11679,0"
         id="path13179"
         inkscape:connector-curvature="0" />
      <path
         inkscape:connector-curvature="0"
         id="path13181"
         d="m -189.54575,-377.08157 0,7.11679"
         style="fill:none;stroke:#000000;stroke-width:0.56817394px;stroke-linecap:butt;stroke-linejoin:miter;stroke-opacity:1" />
    </g>
    <g
       id="g13278">
      <rect
         style="fill:#ddff55;fill-opacity:1;stroke:none"
         id="rect13261"
         width="45.91539"
         height="45.91539"
         x="-157.48836"
         y="-378.85101" />
      <path
         sodipodi:type="arc"
         style="fill:#000000;fill-opacity:1;stroke:#000000;stroke-width:0.84399998;stroke-miterlimit:4;stroke-opacity:1;stroke-dasharray:none"
         id="path13263"
         sodipodi:cx="77.568901"
         sodipodi:cy="74.752602"
         sodipodi:rx="23.844135"
         sodipodi:ry="23.844135"
         d="m 101.41304,74.752602 a 23.844135,23.844135 0 1 1 -47.688274,0 23.844135,23.844135 0 1 1 47.688274,0 z"
         transform="matrix(0.56817396,0,0,0.56817396,-178.60328,-398.36579)" />
      <path
         inkscape:connector-curvature="0"
         id="path13267"
         d="m -120.45919,-355.89331 7.11679,0"
         style="fill:none;stroke:#000000;stroke-width:0.56817394px;stroke-linecap:butt;stroke-linejoin:miter;stroke-opacity:1" />
      <path
         style="fill:none;stroke:#000000;stroke-width:0.56817394px;stroke-linecap:butt;stroke-linejoin:miter;stroke-opacity:1"
         d="m -134.48283,-377.08157 0,7.11679"
         id="path13269"
         inkscape:connector-curvature="0" />
    </g>
  </g>
</svg>
